<?xml version="1.0" encoding="UTF-8"?>
<svg width="26px" height="42px" viewBox="0 0 26 42" version="1.1" xmlns="http://www.w3.org/2000/svg" xmlns:xlink="http://www.w3.org/1999/xlink">
    <title>Sync Logo</title>
    <g id="App-Icon" stroke="none" stroke-width="1" fill="none" fill-rule="evenodd">
        <g id="Sync-Logo" transform="translate(2, 2)">
            <g id="Group" transform="translate(1, 13)" fill-rule="nonzero">
                <path d="M9.93192622,6.89375409 C9.76559202,6.60334452 6.50714757,0.566217105 6.5007501,0.536540215 C6.49008765,0.502623768 6.58818219,0.468707322 7.11277468,0.328801982 C7.36440848,0.26096909 7.98709551,0.142261528 8.33895633,0.0956264144 C9.00216066,0.00871552111 9.17702483,-0.00188336832 10.0129608,0.00023640957 C10.8915466,0.00023640957 11.1602404,0.0193144105 11.868227,0.127423083 C12.5548887,0.231292199 13.5230391,0.475066656 13.4995817,0.534420437 C13.4889192,0.564097327 10.0129608,6.98702432 10.0022984,6.99974299 C9.99803341,7.00398254 9.96817855,6.95522765 9.93192622,6.89375409 Z" id="Path" fill="#000000" transform="translate(10, 3.5) scale(-1, 1) rotate(-180) translate(-10, -3.5)"></path>
                <path d="M14.0958699,18.9370196 C12.8503422,18.5475183 11.4930364,18.3527677 10.0011406,18.3527677 C8.53890023,18.3549808 7.35496458,18.5143222 6.04784488,18.890545 C5.81060151,18.9591503 5.64635611,18.9967726 5.63266899,18.9834941 C5.61213831,18.9613634 0.5,9.75275766 0.5,9.73505306 C0.5,9.71513538 2.05348781,7.99778906 2.06945612,8 C2.07858086,8 2.81540401,8.81220072 3.70506663,9.80365839 C4.59701045,10.7951161 5.39086325,11.67592 5.47070477,11.7622299 C5.66916797,11.9746851 5.79235202,12.0344381 6.03187658,12.0344381 C6.36264858,12.0366512 6.23262096,12.1605834 8.21725297,9.95636058 C9.18447593,8.8852322 9.98060992,8.00664136 9.98973466,8.00221521 C9.99657822,8 10.7676192,8.84539685 11.7029055,9.88332909 C12.6359107,10.9212613 13.4388882,11.8087045 13.4890743,11.8551791 C13.7035058,12.0676343 14.0639332,12.1052566 14.3217073,11.941489 C14.3741746,11.9082929 15.138372,11.0783897 16.1626246,9.94086905 C17.1252851,8.87195375 17.9214191,8 17.9305439,8.00221521 C17.9373874,8.00664136 18.2955337,8.39614259 18.7221155,8.87195375 L19.5,9.73505306 L19.4110337,9.88996832 C19.3631288,9.97406518 18.2088486,12.0565689 16.8446992,14.5152954 C15.4805499,16.9740219 14.3582063,18.9923464 14.3513627,18.9989857 C14.342238,19.0056249 14.2281787,18.979068 14.0958699,18.9370196 Z" id="Path" stroke="#000000" stroke-width="0.5" fill="#FFFFFF" transform="translate(10, 13.5) scale(-1, 1) rotate(-180) translate(-10, -13.5)"></path>
                <path d="M4.32600148,25.0086449 C2.4198877,22.8442261 2.47641539,22.9004156 2.21638801,22.8734447 C2.05132714,22.8577116 1.87043853,22.9116535 1.73929428,23.0195373 C1.68276659,23.0644889 1.2735061,23.5184999 0.830328991,24.0242052 C0.387151884,24.5321581 0.0163302222,24.954703 0.00502468376,24.9681884 C-0.0062808547,24.9794263 0.00502468376,24.1115132 0.00502468376,16 L9.91093748,16 L19.9909556,16 L19.9909556,18.6779672 C19.9909556,29.6776197 20.0113055,24.9614457 19.9909556,24.9389699 C19.9751278,24.9232369 19.5862173,24.4827113 19.1249513,23.961273 C18.4217468,23.1656299 18.2702526,23.0015567 18.1685028,22.9498624 C17.9310865,22.8217503 17.6529702,22.8509689 17.4562538,23.02628 C17.397465,23.0757268 16.5857274,23.9859963 15.6518899,25.0491013 C14.7180524,26.1099587 13.9470147,26.9797718 13.9357092,26.9797718 C13.9266647,26.9797718 13.1488437,26.1032159 12.2082229,25.0311207 C11.1115857,23.7814666 10.4536033,23.0487558 10.3789868,22.9948139 C10.2433203,22.898168 10.0646928,22.8509689 9.91093748,22.8756922 C9.66899896,22.9116535 9.68934893,22.8914253 7.91211828,24.911999 C6.99863077,25.9503805 6.2140264,26.844917 6.16654314,26.8988589 L6.07835994,27 L4.32600148,25.0086449 Z" id="Path" fill="#000000" transform="translate(10, 21.5) scale(-1, 1) rotate(-180) translate(-10, -21.5)"></path>
            </g>
            <g id="Group-3" stroke="#000000" stroke-linecap="round" stroke-linejoin="round" stroke-width="2.1">
                <path d="M3.5,8 C7.84509054,4 14.1549095,4 18.5,8" id="Path"></path>
                <path d="M0,4 C6.28650732,-1.33333333 15.7134927,-1.33333333 22,4" id="Path"></path>
                <path d="M7.5,11 C9.59579672,9.66666667 12.4042033,9.66666667 14.5,11" id="Path"></path>
            </g>
        </g>
    </g>
</svg>